<mxfile host="app.diagrams.net" agent="Mozilla/5.0 (X11; Linux x86_64; rv:128.0) Gecko/20100101 Firefox/128.0" version="27.1.4">
  <diagram name="Page-1" id="Wf0k0EPCuZj91SbxlMt6">
    <mxGraphModel dx="2028" dy="683" grid="1" gridSize="10" guides="1" tooltips="1" connect="1" arrows="1" fold="1" page="1" pageScale="1" pageWidth="850" pageHeight="1100" math="0" shadow="0">
      <root>
        <mxCell id="0" />
        <mxCell id="1" parent="0" />
        <mxCell id="xbARBZZMHT46P_BYGJKc-1" value="" style="rounded=1;whiteSpace=wrap;html=1;opacity=30;fillColor=#60a917;fontColor=#ffffff;strokeColor=#2D7600;strokeWidth=8;" vertex="1" parent="1">
          <mxGeometry x="60" y="240" width="580" height="420" as="geometry" />
        </mxCell>
        <mxCell id="xbARBZZMHT46P_BYGJKc-14" value="" style="whiteSpace=wrap;html=1;aspect=fixed;rounded=1;opacity=60;" vertex="1" parent="1">
          <mxGeometry x="385" y="410" width="70" height="70" as="geometry" />
        </mxCell>
        <mxCell id="xbARBZZMHT46P_BYGJKc-39" value="" style="whiteSpace=wrap;html=1;aspect=fixed;rounded=1;opacity=70;" vertex="1" parent="1">
          <mxGeometry x="315" y="270" width="70" height="70" as="geometry" />
        </mxCell>
        <mxCell id="xbARBZZMHT46P_BYGJKc-40" value="" style="whiteSpace=wrap;html=1;aspect=fixed;rounded=1;opacity=70;" vertex="1" parent="1">
          <mxGeometry x="385" y="340" width="70" height="70" as="geometry" />
        </mxCell>
        <mxCell id="xbARBZZMHT46P_BYGJKc-41" value="" style="whiteSpace=wrap;html=1;aspect=fixed;rounded=1;opacity=70;" vertex="1" parent="1">
          <mxGeometry x="315" y="410" width="70" height="70" as="geometry" />
        </mxCell>
        <mxCell id="xbARBZZMHT46P_BYGJKc-42" value="" style="whiteSpace=wrap;html=1;aspect=fixed;rounded=1;opacity=70;" vertex="1" parent="1">
          <mxGeometry x="385" y="480" width="70" height="70" as="geometry" />
        </mxCell>
        <mxCell id="xbARBZZMHT46P_BYGJKc-43" value="" style="whiteSpace=wrap;html=1;aspect=fixed;rounded=1;opacity=70;" vertex="1" parent="1">
          <mxGeometry x="315" y="480" width="70" height="70" as="geometry" />
        </mxCell>
        <mxCell id="xbARBZZMHT46P_BYGJKc-44" value="" style="whiteSpace=wrap;html=1;aspect=fixed;rounded=1;opacity=70;" vertex="1" parent="1">
          <mxGeometry x="385" y="550" width="70" height="70" as="geometry" />
        </mxCell>
        <mxCell id="xbARBZZMHT46P_BYGJKc-45" value="" style="whiteSpace=wrap;html=1;aspect=fixed;rounded=1;opacity=70;" vertex="1" parent="1">
          <mxGeometry x="245" y="550" width="70" height="70" as="geometry" />
        </mxCell>
        <mxCell id="xbARBZZMHT46P_BYGJKc-46" value="" style="whiteSpace=wrap;html=1;aspect=fixed;rounded=1;opacity=70;" vertex="1" parent="1">
          <mxGeometry x="455" y="480" width="70" height="70" as="geometry" />
        </mxCell>
        <mxCell id="xbARBZZMHT46P_BYGJKc-47" value="" style="whiteSpace=wrap;html=1;aspect=fixed;rounded=1;opacity=70;" vertex="1" parent="1">
          <mxGeometry x="455" y="410" width="70" height="70" as="geometry" />
        </mxCell>
        <mxCell id="xbARBZZMHT46P_BYGJKc-48" value="" style="whiteSpace=wrap;html=1;aspect=fixed;rounded=1;opacity=70;" vertex="1" parent="1">
          <mxGeometry x="455" y="550" width="70" height="70" as="geometry" />
        </mxCell>
        <mxCell id="xbARBZZMHT46P_BYGJKc-50" value="" style="whiteSpace=wrap;html=1;aspect=fixed;rounded=1;opacity=70;" vertex="1" parent="1">
          <mxGeometry x="175" y="550" width="70" height="70" as="geometry" />
        </mxCell>
        <mxCell id="xbARBZZMHT46P_BYGJKc-51" value="" style="whiteSpace=wrap;html=1;aspect=fixed;rounded=1;opacity=70;" vertex="1" parent="1">
          <mxGeometry x="175" y="410" width="70" height="70" as="geometry" />
        </mxCell>
        <mxCell id="xbARBZZMHT46P_BYGJKc-52" value="" style="whiteSpace=wrap;html=1;aspect=fixed;rounded=1;opacity=70;" vertex="1" parent="1">
          <mxGeometry x="245" y="340" width="70" height="70" as="geometry" />
        </mxCell>
        <mxCell id="xbARBZZMHT46P_BYGJKc-53" value="" style="whiteSpace=wrap;html=1;aspect=fixed;rounded=1;opacity=70;" vertex="1" parent="1">
          <mxGeometry x="315" y="340" width="70" height="70" as="geometry" />
        </mxCell>
        <mxCell id="xbARBZZMHT46P_BYGJKc-54" value="" style="whiteSpace=wrap;html=1;aspect=fixed;rounded=1;opacity=70;" vertex="1" parent="1">
          <mxGeometry x="245" y="410" width="70" height="70" as="geometry" />
        </mxCell>
        <mxCell id="xbARBZZMHT46P_BYGJKc-55" value="" style="whiteSpace=wrap;html=1;aspect=fixed;rounded=1;opacity=70;" vertex="1" parent="1">
          <mxGeometry x="245" y="480" width="70" height="70" as="geometry" />
        </mxCell>
        <mxCell id="xbARBZZMHT46P_BYGJKc-57" value="" style="rounded=0;whiteSpace=wrap;html=1;" vertex="1" parent="1">
          <mxGeometry x="-190" y="160" width="220" height="500" as="geometry" />
        </mxCell>
        <mxCell id="xbARBZZMHT46P_BYGJKc-59" value="" style="endArrow=none;html=1;rounded=0;" edge="1" parent="1">
          <mxGeometry width="50" height="50" relative="1" as="geometry">
            <mxPoint x="-240" y="720" as="sourcePoint" />
            <mxPoint x="-240" y="80" as="targetPoint" />
          </mxGeometry>
        </mxCell>
        <mxCell id="xbARBZZMHT46P_BYGJKc-60" value="" style="endArrow=none;html=1;rounded=0;" edge="1" parent="1">
          <mxGeometry width="50" height="50" relative="1" as="geometry">
            <mxPoint x="-280" y="700" as="sourcePoint" />
            <mxPoint x="830" y="700" as="targetPoint" />
          </mxGeometry>
        </mxCell>
        <mxCell id="xbARBZZMHT46P_BYGJKc-61" value="" style="endArrow=none;html=1;rounded=0;" edge="1" parent="1">
          <mxGeometry width="50" height="50" relative="1" as="geometry">
            <mxPoint x="820" y="120" as="sourcePoint" />
            <mxPoint x="-280" y="120" as="targetPoint" />
          </mxGeometry>
        </mxCell>
        <mxCell id="xbARBZZMHT46P_BYGJKc-62" value="" style="endArrow=none;html=1;rounded=0;" edge="1" parent="1">
          <mxGeometry width="50" height="50" relative="1" as="geometry">
            <mxPoint x="790" y="730" as="sourcePoint" />
            <mxPoint x="790" y="90" as="targetPoint" />
          </mxGeometry>
        </mxCell>
        <mxCell id="xbARBZZMHT46P_BYGJKc-80" value="" style="whiteSpace=wrap;html=1;aspect=fixed;rounded=1;opacity=70;" vertex="1" parent="1">
          <mxGeometry x="175" y="480" width="70" height="70" as="geometry" />
        </mxCell>
        <mxCell id="xbARBZZMHT46P_BYGJKc-81" value="GIGIONE" style="rounded=1;whiteSpace=wrap;html=1;fillColor=light-dark(#FFCC99,#00445E);strokeColor=light-dark(#36393D,#C0C0C0);glass=1;gradientDirection=south;" vertex="1" parent="1">
          <mxGeometry x="110" y="160" width="160" height="70" as="geometry" />
        </mxCell>
        <mxCell id="xbARBZZMHT46P_BYGJKc-82" value="GIALLONE" style="rounded=1;whiteSpace=wrap;html=1;fillColor=light-dark(#60A917,#FFE607);fontColor=#ffffff;strokeColor=light-dark(#2D7600,#B1B1B1);glass=1;" vertex="1" parent="1">
          <mxGeometry x="280" y="160" width="160" height="70" as="geometry" />
        </mxCell>
        <mxCell id="xbARBZZMHT46P_BYGJKc-83" value="SBINGONE" style="rounded=1;whiteSpace=wrap;html=1;fillColor=light-dark(#60A917,#FF0A0A);fontColor=#ffffff;strokeColor=light-dark(#2D7600,#FFFFFF);glass=1;" vertex="1" parent="1">
          <mxGeometry x="450" y="160" width="160" height="70" as="geometry" />
        </mxCell>
        <mxCell id="xbARBZZMHT46P_BYGJKc-93" value="&lt;div&gt;Continue&lt;/div&gt;" style="rounded=0;whiteSpace=wrap;html=1;fillColor=light-dark(#FFFFFF,#9800FF);strokeWidth=7;" vertex="1" parent="1">
          <mxGeometry x="600" y="590" width="160" height="80" as="geometry" />
        </mxCell>
        <mxCell id="xbARBZZMHT46P_BYGJKc-94" value="BROWN" style="rounded=0;whiteSpace=wrap;html=1;" vertex="1" parent="1">
          <mxGeometry x="-170" y="540" width="90" height="90" as="geometry" />
        </mxCell>
        <mxCell id="xbARBZZMHT46P_BYGJKc-96" value="PURPLE" style="rounded=0;whiteSpace=wrap;html=1;" vertex="1" parent="1">
          <mxGeometry x="-80" y="540" width="90" height="90" as="geometry" />
        </mxCell>
        <mxCell id="xbARBZZMHT46P_BYGJKc-97" value="&lt;div&gt;HUMAN&lt;/div&gt;" style="rounded=0;whiteSpace=wrap;html=1;" vertex="1" parent="1">
          <mxGeometry x="-125" y="450" width="90" height="90" as="geometry" />
        </mxCell>
        <mxCell id="xbARBZZMHT46P_BYGJKc-99" value="Blob Select Mode" style="rounded=0;whiteSpace=wrap;html=1;" vertex="1" parent="1">
          <mxGeometry x="-170" y="330" width="180" height="60" as="geometry" />
        </mxCell>
        <mxCell id="xbARBZZMHT46P_BYGJKc-100" value="Remove Component Mode" style="rounded=0;whiteSpace=wrap;html=1;" vertex="1" parent="1">
          <mxGeometry x="-170" y="270" width="180" height="60" as="geometry" />
        </mxCell>
        <mxCell id="xbARBZZMHT46P_BYGJKc-101" value="Crew Set Mode" style="rounded=0;whiteSpace=wrap;html=1;strokeWidth=6;" vertex="1" parent="1">
          <mxGeometry x="-170" y="390" width="180" height="60" as="geometry" />
        </mxCell>
        <mxCell id="xbARBZZMHT46P_BYGJKc-103" value="FINISH ORDER:" style="rounded=1;whiteSpace=wrap;html=1;" vertex="1" parent="1">
          <mxGeometry x="-180" y="190" width="110" height="20" as="geometry" />
        </mxCell>
        <mxCell id="xbARBZZMHT46P_BYGJKc-104" value="SETUPPING" style="rounded=1;whiteSpace=wrap;html=1;" vertex="1" parent="1">
          <mxGeometry x="-180" y="220" width="110" height="20" as="geometry" />
        </mxCell>
        <mxCell id="xbARBZZMHT46P_BYGJKc-105" value="" style="whiteSpace=wrap;html=1;aspect=fixed;fillColor=light-dark(#FFFFFF,#FF0000);" vertex="1" parent="1">
          <mxGeometry x="-60" y="190" width="20" height="20" as="geometry" />
        </mxCell>
        <mxCell id="xbARBZZMHT46P_BYGJKc-106" value="" style="whiteSpace=wrap;html=1;aspect=fixed;fillColor=light-dark(#FFFFFF,#FFF600);" vertex="1" parent="1">
          <mxGeometry x="-40" y="220" width="20" height="20" as="geometry" />
        </mxCell>
        <mxCell id="xbARBZZMHT46P_BYGJKc-108" value="" style="whiteSpace=wrap;html=1;aspect=fixed;fillColor=light-dark(#FFFFFF,#41FF07);" vertex="1" parent="1">
          <mxGeometry x="-60" y="220" width="20" height="20" as="geometry" />
        </mxCell>
        <mxCell id="xbARBZZMHT46P_BYGJKc-113" value="" style="whiteSpace=wrap;html=1;aspect=fixed;fillColor=light-dark(#FFFFFF,#4CFF00);" vertex="1" parent="1">
          <mxGeometry x="-40" y="190" width="20" height="20" as="geometry" />
        </mxCell>
        <mxCell id="xbARBZZMHT46P_BYGJKc-114" value="" style="whiteSpace=wrap;html=1;aspect=fixed;fillColor=light-dark(#FFFFFF,#070FFF);" vertex="1" parent="1">
          <mxGeometry x="-20" y="220" width="20" height="20" as="geometry" />
        </mxCell>
        <mxCell id="xbARBZZMHT46P_BYGJKc-115" value="DRAG ON CABIN!" style="rounded=0;whiteSpace=wrap;html=1;" vertex="1" parent="1">
          <mxGeometry x="-150" y="530" width="140" height="20" as="geometry" />
        </mxCell>
      </root>
    </mxGraphModel>
  </diagram>
</mxfile>
